<?xml version="1.0" encoding="UTF-8"?>
<svg width="14px" height="10px" viewBox="0 0 14 10" version="1.1" xmlns="http://www.w3.org/2000/svg" xmlns:xlink="http://www.w3.org/1999/xlink">
    <!-- Generator: Sketch 49.2 (51160) - http://www.bohemiancoding.com/sketch -->
    <title>Icon_Eye</title>
    <desc>Created with Sketch.</desc>
    <defs></defs>
    <g id="Media-02" stroke="none" stroke-width="1" fill="none" fill-rule="evenodd">
        <g id="hh-media-1280-photos-02" transform="translate(-777.000000, -540.000000)" fill="#CCCCCC">
            <g id="Group" transform="translate(673.000000, 536.000000)">
                <g id="Icon_Eye" transform="translate(104.000000, 4.000000)">
                    <path d="M7,10 C3.6862915,10 0,5 0,5 C0,5 3.6862915,0 7,0 C10.3137085,0 14,5 14,5 C14,5 10.3137085,10 7,10 Z M7,8 C8.65685425,8 10,6.65685425 10,5 C10,3.34314575 8.65685425,2 7,2 C5.34314575,2 4,3.34314575 4,5 C4,6.65685425 5.34314575,8 7,8 Z" id="Oval-2"></path>
                    <circle id="Oval-4" cx="7" cy="5" r="2"></circle>
                </g>
            </g>
        </g>
    </g>
</svg>